<svg width="465" height="436" viewBox="0 0 465 436" fill="none" xmlns="http://www.w3.org/2000/svg">
<path fill-rule="evenodd" clip-rule="evenodd" d="M247.889 171.097C247.917 170.196 248.049 163.751 246.444 155.292C263.333 152.175 280.058 152.07 284.544 152.111C288.741 156.548 309.038 178.337 313.968 189.12C311.562 193.949 301.527 214.116 292.118 233.15C284.496 233.959 250.885 237.465 238.217 237.72C236.562 235.517 232.637 230.209 227.948 223.425C242.186 209.076 249.383 182.657 247.889 171.097ZM233.191 170.142C233.077 169.169 232.682 166.285 231.659 162.26C226.293 170.114 216.193 185.766 212.596 197.221C213.877 197.3 214.868 197.345 215.511 197.37C218.063 195.002 228.11 184.998 233.191 170.142ZM206.824 196.771C211.081 181.852 225.841 160.737 229.616 155.486C229.527 155.232 229.436 154.976 229.343 154.717C227.903 151.393 224.783 144.494 221.231 138.452C221.03 138.347 220.757 138.206 220.413 138.038C206.694 140.18 188.615 155.218 178.138 175.449C180.792 182.245 183.409 189.214 184.677 193.37C193.047 195.218 200.986 196.226 206.824 196.771ZM192.916 147.593C193.859 146.555 199.565 140.432 208.896 133.731C204.002 132.349 197.886 131.124 190.887 130.764C184.083 139.475 177.379 148.254 170.775 157.099C171.573 159.042 173.407 163.523 175.518 168.815C183.033 156.406 191.801 148.563 192.916 147.593ZM213.163 130.804C216.524 128.604 220.251 126.412 224.303 124.382C224.326 124.07 224.338 123.817 224.344 123.63H188.617C189.727 124.983 190.543 126.072 191.05 126.775C200.031 127.228 207.578 128.996 213.163 130.804ZM100.289 176.263L100.289 135.63C100.289 129.003 105.661 123.63 112.289 123.63H124.579C124.325 129.525 124.281 139.107 125.774 149.049C117.918 154.991 105.485 172.092 102.268 176.607C101.589 176.498 100.93 176.383 100.289 176.263ZM301.42 123.63H311.768C313.739 124.225 315.695 124.866 317.634 125.551C312.822 124.683 307.643 124.172 302.361 124.25C302.05 124.04 301.736 123.833 301.42 123.63ZM327.463 123.63H452.495C459.122 123.63 464.495 129.003 464.495 135.63V435.053H100.289V230.066C109.43 237.957 118.252 242.105 119.483 242.665C120.888 243.508 136.719 252.703 156.166 252.703C156.497 252.703 157.502 252.746 158.698 252.796L158.7 252.796L158.7 252.796C160.458 252.869 162.627 252.96 163.674 252.96C164.459 252.96 165.259 252.94 166.071 252.902C169.083 263.616 173.337 272.498 178.195 276.904C189.029 302.713 229.365 324.625 247.714 326.967C250.357 327.695 288.248 337.712 318.926 322.63C321.403 322.233 331.574 319.965 346.495 308.246C353.542 303.157 360.132 297.531 366.197 291.426L366.22 291.402C366.982 290.629 381.755 275.498 387.687 254.184C388.137 252.565 388.482 250.94 388.807 249.328L388.837 249.335C393.737 233.176 393.78 215.94 391.814 205.063C390.069 195.415 385.782 184.125 385.437 183.301C381.649 169.602 359.409 139.925 344.781 134.413C342.207 131.238 335.882 127.279 327.463 123.63ZM170.558 247.74C170.613 247.97 170.667 248.2 170.723 248.429C172.142 248.238 173.592 247.998 175.062 247.713C174.859 246.776 174.673 245.849 174.504 244.933C173.237 245.989 171.898 246.923 170.558 247.74ZM178.185 268.203C175.717 264.146 173.523 258.642 171.754 252.369C173.154 252.178 174.576 251.942 176.012 251.666C176.991 255.372 178.255 259.19 179.876 263.03C179.418 264.162 178.719 266.042 178.185 268.203ZM180.622 194.562C179.409 195.914 176.698 198.894 173.134 202.615C171.871 197.768 171.645 193.668 171.604 192.603C172.618 188.515 173.99 184.53 175.647 180.697C177.745 186.158 179.642 191.327 180.622 194.562ZM166.832 158.594C167.788 160.922 170.236 166.91 172.853 173.532C170.461 178.088 168.336 183.132 166.821 188.577C166.71 188.976 166.313 190.179 165.842 191.609C165.15 193.71 164.295 196.303 163.943 197.569C162.549 202.577 161.763 208.243 161.497 214.201C159.476 216.106 157.406 217.995 155.342 219.791C143.541 219.842 123.469 213.445 119.643 212.188C111.314 199.527 106.567 182.985 105.551 179.185C108.187 175.472 121.19 157.457 128.599 152.036C132.794 152.762 150.311 155.785 166.832 158.594ZM168.07 205.474C167.936 206.353 167.817 207.248 167.713 208.157C168.022 207.848 168.328 207.541 168.631 207.235C168.429 206.643 168.242 206.055 168.07 205.474ZM172.589 241.161C171.238 240.145 169.926 239.077 168.668 237.992C168.954 239.847 169.278 241.682 169.636 243.486C170.661 242.788 171.662 242.014 172.589 241.161ZM164.444 246.391C163.402 241.667 162.598 236.714 162.077 231.725C158.724 228.246 156.242 225.223 155.118 223.806C142.731 223.806 123.298 217.633 118.566 216.067C116.473 217.524 111.076 221.381 106.698 225.345C111.802 236.802 134.779 249.264 158.373 248.669C159.08 248.469 161.522 247.742 164.444 246.391ZM218.29 208.831C220.733 212.712 223.226 216.493 225.598 219.992C235.464 209.645 241.243 193.175 243.128 181.577C243.427 177.756 242.898 175.235 242.582 174.144C241.671 173.748 239.749 173.042 236.793 172.578C231.309 187.62 221.427 197.514 218.548 200.166C218.672 201.655 218.788 204.671 218.29 208.831ZM320.691 314.481C319.021 314.026 313.148 312.181 307.033 307.805C311.422 303.179 321.375 291.285 327.545 273.146C332.694 271.438 350.864 264.71 366.05 250.764C370.135 254.188 375.007 258.753 376.246 261.027C376.26 261.668 376.166 262.635 375.773 264.046C373.304 272.918 362.855 286.727 361.934 287.926C360.745 289.145 337.288 312.817 320.691 314.481ZM289.18 149.008C294.706 137.527 300.67 131.359 302.609 129.555C321.102 129.325 338.743 137.505 341.26 138.716C348.424 145.188 366.319 162.999 368.075 172.279C367.551 181.321 362.255 191.456 359.909 195.539C353.99 193.645 337.353 188.712 319.01 186.71C313.517 175.21 294.28 154.417 289.18 149.008ZM383.606 246.902C382.643 249.546 380.914 253.348 379.304 255.848C376.231 252.205 371.33 248.041 368.893 246.043C369.467 240.295 371.034 218.314 364.273 199.105C366.129 196.024 371.404 186.638 373.18 176.958C377.358 180.491 379.954 184.872 380.216 185.338C380.847 186.885 392.538 216.547 383.655 246.914L383.606 246.902ZM222.629 278.968C223.952 274.904 229.317 259.314 238.484 243.026C251.746 242.733 285.221 239.231 292.838 238.421C302.73 249.385 312.497 260.448 322.137 271.608C315.414 291.29 303.759 303.407 301.386 305.723C278.369 312.426 257.443 309.995 253.969 309.513C235.332 298.369 225.013 282.851 222.629 278.968ZM184.292 267.315C200.116 277.981 213.454 280.97 217.778 281.699C220.44 286.074 230.665 301.355 249.42 313.05C247.79 316.468 246.175 318.554 245.327 319.523C243.726 319.539 240.096 319.329 234.962 317.681C216.874 310.348 191.237 294.077 183.305 274.664C182.869 272.801 183.48 269.861 184.292 267.315Z" fill="url(#paint0_linear_365_571)"/>
<path fill-rule="evenodd" clip-rule="evenodd" d="M12 0C5.37258 0 0 5.37257 0 12V292.641H179.216C176.614 289.158 174.464 285.551 172.916 281.864C168.059 277.458 163.805 268.576 160.793 257.862C159.981 257.901 159.181 257.92 158.395 257.92C157.349 257.92 155.179 257.829 153.421 257.756L153.417 257.755C152.222 257.706 151.218 257.664 150.888 257.664C131.44 257.664 115.61 248.468 114.205 247.625C111.894 246.574 82.8459 232.885 75.1295 205.532C64.124 185.85 69.1289 153.537 75.1179 146.344C76.6014 135.298 95.3407 114.454 105.223 109.26C105.795 108.867 113.717 103.79 120.853 100.762C128.897 97.3495 142.246 94.1005 155.684 94.3761V94.3979C156.993 94.3133 158.317 94.2397 159.655 94.2397C177.28 94.2397 191.801 101.458 192.544 101.832L192.567 101.842C198.446 104.826 204.053 108.26 209.333 112.108C218.825 118.46 223.095 123.891 224.832 126.653C234.619 122.488 245.97 119.504 258.437 119.465C289.097 112.781 331.667 129.709 339.503 139.373C346.913 142.165 356.277 151.159 364.206 161.136V12C364.206 5.37258 358.834 0 352.206 0H12ZM364.206 193.796C362.212 198.521 360.05 202.313 358.995 204.065C365.756 223.273 364.188 245.255 363.615 251.003C363.798 251.154 363.996 251.316 364.206 251.491V193.796ZM364.206 258.716C363.063 257.68 361.888 256.66 360.772 255.724C345.586 269.67 327.416 276.398 322.266 278.106C320.426 283.515 318.25 288.369 315.985 292.641H356.843C357.76 291.431 361.035 287.03 364.206 281.906V258.716ZM309.599 292.641C312.21 288.056 314.772 282.676 316.859 276.567C307.219 265.408 297.452 254.345 287.56 243.381C279.942 244.191 246.468 247.693 233.206 247.986C224.039 264.274 218.674 279.864 217.351 283.928C218.266 285.419 220.352 288.625 223.628 292.641H309.599ZM216.58 292.641C214.604 289.996 213.251 287.893 212.5 286.659C208.176 285.93 194.838 282.941 179.014 272.274C178.201 274.82 177.591 277.761 178.026 279.624C179.879 284.159 182.699 288.522 186.162 292.641H216.58ZM242.611 176.057C242.639 175.156 242.771 168.711 241.166 160.252C258.055 157.135 274.779 157.03 279.266 157.071C283.463 161.508 303.76 183.296 308.69 194.08C306.284 198.909 296.249 219.076 286.84 238.11C279.218 238.919 245.607 242.425 232.938 242.68C231.284 240.477 227.359 235.169 222.67 228.385C236.908 214.036 244.104 187.617 242.611 176.057ZM227.912 175.102C227.799 174.129 227.404 171.245 226.38 167.22C221.015 175.074 210.915 190.726 207.318 202.181C208.599 202.26 209.589 202.305 210.233 202.33C212.784 199.962 222.832 189.958 227.912 175.102ZM201.546 201.732C205.802 186.813 220.563 165.697 224.337 160.446C224.248 160.192 224.157 159.935 224.064 159.676C222.624 156.352 219.505 149.454 215.953 143.412C215.752 143.307 215.478 143.167 215.134 142.997C201.415 145.14 183.337 160.178 172.86 180.409C175.514 187.205 178.13 194.174 179.399 198.33C187.768 200.178 195.708 201.186 201.546 201.732ZM187.638 152.553C188.581 151.515 194.287 145.392 203.617 138.691C198.723 137.309 192.608 136.084 185.609 135.724C178.805 144.435 172.101 153.214 165.496 162.059C166.295 164.002 168.129 168.483 170.24 173.775C177.755 161.366 186.523 153.523 187.638 152.553ZM207.884 135.764C211.246 133.564 214.972 131.372 219.025 129.342C219.049 129.012 219.061 128.747 219.067 128.557C214.622 117.531 191.839 106.003 190.669 105.422C189.566 105.021 176.891 100.506 169.555 100.506C168.388 100.506 167.621 100.626 167.128 100.757C165.604 102.036 162.997 106.234 161.124 109.677C174.806 117.403 183.469 128.541 185.771 131.735C194.752 132.188 202.3 133.956 207.884 135.764ZM165.28 252.7C165.334 252.93 165.389 253.16 165.445 253.389C166.864 253.198 168.314 252.958 169.784 252.673C169.581 251.736 169.395 250.809 169.225 249.893C167.959 250.95 166.62 251.883 165.28 252.7ZM172.907 273.163C170.439 269.106 168.245 263.602 166.476 257.329C167.876 257.138 169.298 256.902 170.734 256.626C171.713 260.332 172.977 264.15 174.598 267.99C174.139 269.122 173.44 271.002 172.907 273.163ZM175.344 199.523C174.131 200.874 171.42 203.854 167.855 207.575C166.593 202.728 166.366 198.628 166.326 197.563C167.34 193.475 168.711 189.49 170.369 185.657C172.466 191.118 174.364 196.287 175.344 199.523ZM161.554 163.554C162.51 165.883 164.957 171.87 167.574 178.492C165.183 183.048 163.058 188.092 161.543 193.536C161.431 193.936 161.035 195.139 160.564 196.569C159.871 198.67 159.017 201.263 158.665 202.529C157.271 207.537 156.485 213.203 156.218 219.161C154.197 221.066 152.128 222.955 150.064 224.751C138.263 224.803 118.191 218.405 114.365 217.148C106.036 204.487 101.289 187.945 100.273 184.145C102.909 180.432 115.912 162.417 123.32 156.996C127.515 157.722 145.033 160.745 161.554 163.554ZM162.791 210.434C162.657 211.313 162.539 212.208 162.434 213.117C162.744 212.808 163.05 212.501 163.352 212.195C163.15 211.603 162.964 211.015 162.791 210.434ZM167.311 246.122C165.96 245.105 164.648 244.038 163.39 242.952C163.676 244.807 164 246.642 164.358 248.446C165.383 247.748 166.383 246.974 167.311 246.122ZM159.166 251.351C158.124 246.627 157.319 241.674 156.799 236.685C153.446 233.206 150.964 230.183 149.84 228.766C137.453 228.766 118.019 222.593 113.287 221.027C111.194 222.484 105.798 226.341 101.42 230.305C106.523 241.762 129.501 254.224 153.094 253.629C153.802 253.429 156.243 252.702 159.166 251.351ZM213.012 213.791C215.455 217.672 217.948 221.453 220.32 224.952C230.186 214.605 235.965 198.135 237.85 186.537C238.149 182.716 237.62 180.195 237.304 179.104C236.392 178.708 234.47 178.002 231.515 177.538C226.031 192.58 216.149 202.474 213.269 205.126C213.394 206.615 213.51 209.631 213.012 213.791ZM96.9896 181.567C87.0524 179.974 81.1447 177.071 79.3796 176.089C75.684 163.494 78.6597 149.882 79.1183 147.931C82.7646 141.804 93.146 126.187 99.9943 123.221C107.092 121.86 115.944 123.552 119.549 124.378C119.21 128.784 118.557 141.092 120.496 154.009C112.64 159.951 100.206 177.052 96.9896 181.567ZM154.796 98.4134C157.025 98.5689 160.297 99.0272 162.538 99.6519C160.303 102.445 158.012 106.586 156.929 108.632C152.372 109.333 135.061 112.443 121.48 120.717C118.742 120.035 110.474 118.216 102.645 118.843C104.584 115.316 107.481 112.708 107.792 112.441C108.869 111.715 129.603 98.0834 154.796 98.378V98.4134ZM73.4225 166.582C73.6664 170.036 74.2557 173.672 75.3211 177.268C74.3633 179.598 73.6988 182.025 73.3412 184.5C72.7349 178.54 72.7622 172.537 73.4225 166.582ZM283.901 153.968C289.428 142.487 295.391 136.319 297.33 134.515C315.824 134.285 333.465 142.465 335.982 143.676C343.146 150.148 361.041 167.959 362.797 177.239C362.272 186.281 356.977 196.416 354.631 200.498C348.712 198.605 332.074 193.672 313.731 191.67C308.238 180.17 289.002 159.377 283.901 153.968ZM312.356 130.511C307.544 129.643 302.365 129.132 297.082 129.21C294.214 127.268 291.114 125.647 287.844 124.382C296.211 125.655 304.422 127.708 312.356 130.511Z" fill="url(#paint1_linear_365_571)"/>
<defs>
<linearGradient id="paint0_linear_365_571" x1="203.216" y1="57.6507" x2="282.392" y2="435.053" gradientUnits="userSpaceOnUse">
<stop stop-color="#B844FF"/>
<stop offset="1" stop-color="#B844FF" stop-opacity="0"/>
</linearGradient>
<linearGradient id="paint1_linear_365_571" x1="102.928" y1="-62.0001" x2="154.373" y2="254.038" gradientUnits="userSpaceOnUse">
<stop stop-color="#448FFF"/>
<stop offset="1" stop-color="#44FFF4" stop-opacity="0"/>
</linearGradient>
</defs>
</svg>
